<?xml version="1.0" encoding="UTF-8" standalone="no"?>
<!-- Created with Inkscape (http://www.inkscape.org/) -->

<svg
   xmlns:dc="http://purl.org/dc/elements/1.1/"
   xmlns:cc="http://creativecommons.org/ns#"
   xmlns:rdf="http://www.w3.org/1999/02/22-rdf-syntax-ns#"
   xmlns:svg="http://www.w3.org/2000/svg"
   xmlns="http://www.w3.org/2000/svg"
   xmlns:sodipodi="http://sodipodi.sourceforge.net/DTD/sodipodi-0.dtd"
   xmlns:inkscape="http://www.inkscape.org/namespaces/inkscape"
   width="210mm"
   height="297mm"
   id="svg2"
   version="1.1"
   inkscape:version="0.48.2 r9819"
   sodipodi:docname="icons.svg">
  <defs
     id="defs4" />
  <sodipodi:namedview
     id="base"
     pagecolor="#ffffff"
     bordercolor="#666666"
     borderopacity="1.0"
     inkscape:pageopacity="0.0"
     inkscape:pageshadow="2"
     inkscape:zoom="7.0710678"
     inkscape:cx="413.11383"
     inkscape:cy="663.88491"
     inkscape:document-units="px"
     inkscape:current-layer="layer2"
     showgrid="false"
     inkscape:snap-to-guides="false"
     inkscape:window-width="1859"
     inkscape:window-height="1036"
     inkscape:window-x="61"
     inkscape:window-y="0"
     inkscape:window-maximized="1" />
  <metadata
     id="metadata7">
    <rdf:RDF>
      <cc:Work
         rdf:about="">
        <dc:format>image/svg+xml</dc:format>
        <dc:type
           rdf:resource="http://purl.org/dc/dcmitype/StillImage" />
        <dc:title></dc:title>
      </cc:Work>
    </rdf:RDF>
  </metadata>
  <g
     inkscape:groupmode="layer"
     id="layer2"
     inkscape:label="Base"
     style="opacity:1">
    <path
       style="fill:#7198f2;fill-opacity:1;stroke-width:10.39999961999999911;stroke-miterlimit:4;stroke-dasharray:none"
       d="M 89.25 358.875 C 74.476383 358.875 62.5 370.85138 62.5 385.625 C 62.5 400.39862 74.476383 412.375 89.25 412.375 C 104.02362 412.375 116 400.39862 116 385.625 L 116 385.0625 C 115.69685 370.50914 103.80651 358.875 89.25 358.875 z M 86 368.0625 L 92.5 368.0625 L 92.5 382.375 L 106.78125 382.375 L 106.78125 388.84375 L 92.5 388.84375 L 92.5 403.15625 L 86 403.15625 L 86 388.84375 L 71.71875 388.84375 L 71.71875 382.375 L 86 382.375 L 86 368.0625 z "
       id="path4044"
       inkscape:export-xdpi="90"
       inkscape:export-ydpi="90" />
    <path
       style="fill:#7198f2;fill-opacity:1;stroke-width:10.39999961999999911;stroke-miterlimit:4;stroke-dasharray:none"
       d="M 151.75 359.875 C 136.97638 359.875 125 371.85138 125 386.625 C 125 401.39862 136.97638 413.375 151.75 413.375 C 166.52362 413.375 178.5 401.39862 178.5 386.625 L 178.5 386.0625 C 178.19685 371.50914 166.30651 359.875 151.75 359.875 z M 132.8125 380.84375 L 170.6875 380.84375 L 170.6875 392.375 L 132.8125 392.375 L 132.8125 380.84375 z "
       id="use4046"
       inkscape:export-xdpi="90"
       inkscape:export-ydpi="90" />
    <path
       style="fill:#7198f2;fill-opacity:1;stroke-width:10.39999961999999911;stroke-miterlimit:4;stroke-dasharray:none"
       d="M 214.75 361.375 C 199.97638 361.375 188 373.35138 188 388.125 C 188 402.89862 199.97638 414.875 214.75 414.875 C 229.52362 414.875 241.5 402.89862 241.5 388.125 L 241.5 387.5625 C 241.19685 373.00914 229.30651 361.375 214.75 361.375 z M 210.96875 376.125 L 211.5 384.0625 L 233.59375 384.0625 L 233.65625 392.53125 L 212.03125 392.53125 L 212.03125 400.09375 L 195.84375 390.9375 L 210.96875 376.125 z "
       id="use4048"
       inkscape:export-xdpi="145.07463"
       inkscape:export-ydpi="145.07463" />
    <path
       style="fill:#7198f2;fill-opacity:1;stroke-width:10.39999961999999911;stroke-miterlimit:4;stroke-dasharray:none"
       d="M 282.25 362.375 C 267.47638 362.375 255.5 374.35138 255.5 389.125 C 255.5 403.89862 267.47638 415.875 282.25 415.875 C 297.02362 415.875 309 403.89862 309 389.125 L 309 388.5625 C 308.69685 374.00914 296.80651 362.375 282.25 362.375 z M 288.6875 373.71875 L 294.09375 379.125 L 298.46875 384.125 L 278.09375 404.5 L 266.03125 404.5 L 269 393.40625 L 288.6875 373.71875 z "
       id="use4050"
       inkscape:export-xdpi="145.07463"
       inkscape:export-ydpi="145.07463" />
    <path
       style="fill:#7198f2;fill-opacity:1;stroke-width:10.39999961999999911;stroke-miterlimit:4;stroke-dasharray:none"
       d="m 345.46716,365.71348 c -14.77362,0 -26.75,11.97638 -26.75,26.75 0,14.77362 11.97638,26.75 26.75,26.75 14.77362,0 26.75,-11.97638 26.75,-26.75 l 0,-0.5625 c -0.30315,-14.55336 -12.19349,-26.1875 -26.75,-26.1875 z m -4.1875,8.5 8.375,0 0,6.84375 -8.375,0 0,-6.84375 z m 0,10.21875 8.375,0 0,26.25 -8.375,0 0,-26.25 z"
       id="use4052"
       inkscape:connector-curvature="0"
       inkscape:export-xdpi="90"
       inkscape:export-ydpi="90" />
    <path
       inkscape:connector-curvature="0"
       id="use4111"
       d="m 398.1,389.46218 33.5,0"
       style="fill:none;stroke:#7198f2;stroke-width:7;stroke-linecap:butt;stroke-linejoin:miter;stroke-miterlimit:4;stroke-opacity:1;stroke-dasharray:none"
       inkscape:export-xdpi="145.07463"
       inkscape:export-ydpi="145.07463" />
    <path
       inkscape:connector-curvature="0"
       id="use4113"
       d="m 445.3,389.46218 33.5,0"
       style="fill:none;stroke:#7198f2;stroke-width:7;stroke-linecap:butt;stroke-linejoin:miter;stroke-miterlimit:4;stroke-opacity:1;stroke-dasharray:none"
       inkscape:export-filename="/Users/jose/Documents/Mis proyectos/3DMarker/Resources/use4115.png"
       inkscape:export-xdpi="145.07463"
       inkscape:export-ydpi="145.07463" />
    <path
       style="fill:none;stroke:#7198f2;stroke-width:7;stroke-linecap:butt;stroke-linejoin:miter;stroke-miterlimit:4;stroke-opacity:1;stroke-dasharray:none"
       d="m 462.05,372.71218 0,33.5"
       id="use4115"
       inkscape:connector-curvature="0"
       inkscape:export-xdpi="145.07463"
       inkscape:export-ydpi="145.07463" />
  </g>
</svg>
